<svg width="960" height="540" viewBox="0 0 960 540" fill="none" xmlns="http://www.w3.org/2000/svg">
<rect width="960" height="540" rx="32" fill="#0F172A"/>
<rect x="120" y="120" width="240" height="320" rx="18" fill="#111827" stroke="#1F2937" stroke-width="2"/>
<rect x="390" y="120" width="450" height="80" rx="12" fill="#111827" stroke="#1F2937" stroke-width="2"/>
<rect x="390" y="220" width="450" height="60" rx="12" fill="#111827" stroke="#1F2937" stroke-width="2"/>
<rect x="390" y="300" width="450" height="60" rx="12" fill="#111827" stroke="#1F2937" stroke-width="2"/>
<rect x="390" y="380" width="450" height="60" rx="12" fill="#111827" stroke="#1F2937" stroke-width="2"/>
<rect x="150" y="150" width="180" height="130" rx="12" fill="url(#paint0_linear)"/>
<rect x="150" y="300" width="180" height="80" rx="12" fill="#111827" stroke="#1F2937" stroke-width="2"/>
<rect x="150" y="390" width="180" height="30" rx="8" fill="#F97316" opacity="0.8"/>
<rect x="420" y="140" width="180" height="14" rx="7" fill="#E2E8F0"/>
<rect x="420" y="170" width="120" height="10" rx="5" fill="#94A3B8"/>
<rect x="420" y="240" width="220" height="12" rx="6" fill="#E2E8F0"/>
<rect x="420" y="268" width="140" height="10" rx="5" fill="#94A3B8"/>
<rect x="420" y="320" width="260" height="12" rx="6" fill="#E2E8F0"/>
<rect x="420" y="348" width="120" height="10" rx="5" fill="#94A3B8"/>
<rect x="420" y="400" width="260" height="12" rx="6" fill="#E2E8F0"/>
<rect x="420" y="428" width="180" height="10" rx="5" fill="#94A3B8"/>
<defs>
<linearGradient id="paint0_linear" x1="150" y1="150" x2="330" y2="280" gradientUnits="userSpaceOnUse">
<stop stop-color="#38BDF8"/>
<stop offset="1" stop-color="#F97316"/>
</linearGradient>
</defs>
</svg>
