<svg width="960" height="540" viewBox="0 0 960 540" fill="none" xmlns="http://www.w3.org/2000/svg">
<rect width="960" height="540" rx="32" fill="#0F172A"/>
<rect x="180" y="130" width="600" height="280" rx="20" fill="#111827" stroke="#1F2937" stroke-width="2"/>
<rect x="220" y="170" width="240" height="90" rx="14" fill="url(#paint0_linear)"/>
<rect x="490" y="170" width="220" height="90" rx="14" fill="#0F172A" stroke="#1F2937" stroke-width="2"/>
<rect x="220" y="286" width="160" height="80" rx="14" fill="#0F172A" stroke="#1F2937" stroke-width="2"/>
<rect x="420" y="286" width="140" height="80" rx="14" fill="#0F172A" stroke="#1F2937" stroke-width="2"/>
<rect x="600" y="286" width="110" height="80" rx="14" fill="#0F172A" stroke="#1F2937" stroke-width="2"/>
<path d="M340 260V286" stroke="#F97316" stroke-width="6" stroke-linecap="round"/>
<path d="M590 260V286" stroke="#38BDF8" stroke-width="6" stroke-linecap="round"/>
<path d="M440 250C440 242.268 446.268 236 454 236H546C553.732 236 560 242.268 560 250V268H440V250Z" fill="#0F172A" stroke="#1F2937" stroke-width="2"/>
<rect x="460" y="246" width="40" height="8" rx="4" fill="#E2E8F0"/>
<rect x="510" y="246" width="40" height="8" rx="4" fill="#E2E8F0"/>
<defs>
<linearGradient id="paint0_linear" x1="220" y1="170" x2="460" y2="260" gradientUnits="userSpaceOnUse">
<stop stop-color="#38BDF8"/>
<stop offset="1" stop-color="#F97316"/>
</linearGradient>
</defs>
</svg>
